<svg id="eJPnUu6IyLr1" xmlns="http://www.w3.org/2000/svg" xmlns:xlink="http://www.w3.org/1999/xlink" viewBox="0 0 400 400" shape-rendering="geometricPrecision" text-rendering="geometricPrecision" project-id="9da1bf3dc89d4b4f91d7a902e1370fc3" export-id="bbc09d64f2f54257a4c1d5cd16ed806f" cached="false"><g transform="matrix(1.322917 0 0 1.322917 0.000107 0.000107)"><path d="M147.401495,-1.889806c0,82.451309-66.839992,149.291301-149.291301,149.291301s-149.291301-66.839992-149.291301-149.291301s66.839992-149.291301,149.291301-149.291301s149.291301,66.839992,149.291301,149.291301Z" transform="translate(153.18 153.18)" fill="#fffff0" fill-opacity="100" stroke="#fffff0" stroke-width="2" stroke-linecap="round" stroke-dasharray="0"/><g transform="translate(37.7953 155.952)"><path d="M34.813109,0h-24.527418v-88.615187h25.014315q11.563795,0,20.449658,5.112415t13.724399,14.546037t4.899397,21.6669v0v5.660173q0,12.537588-4.838535,21.971211t-13.815692,14.485174-20.906124,5.173277v0Zm.791207-78.998978h-13.633106v69.443632h12.29414q13.511382,0,21.027848-8.398967t7.516467-23.918797v0-5.173277q0-15.093795-7.090432-23.462331t-20.114917-8.49026v0Z" stroke-width="10.3871"/><path d="M94.823119,-88.615187l25.1969,73.095357l25.318625-73.095357h12.781036L125.254158,0h-10.346554l-32.80466-88.615187h12.720175Z" stroke-width="10.3871"/><path d="M181.734167,-88.615187v79.059841h41.994834v9.555346h-53.741215v-88.615187h11.746381Z" stroke-width="10.3871"/></g><path d="M23.686583,-85.258072v76.064707h45.148462v9.193348h-57.776946v-85.258055h12.628484Z" transform="translate(37.0713 234.735)" stroke-width="5.18519"/><path d="M149.377029,-0.000003l-9.298385-22.251414h-40.80613L90.10788,-0.000003h-13.245255l37.193749-85.258054h11.238388L162.55542,-0.000003h-13.178391Zm-29.701454-71.380193l-16.523124,39.876873h33.113174l-16.59005-39.876873Z" transform="translate(38.2748 234.488)" stroke-width="5.18519"/><path d="M204.869339,-0.000017h-33.043442v-85.258055h31.145905q15.507507,0,23.32669,5.738525t7.819184,16.981339v0q0,5.972752-3.795044,10.569427t-10.338364,7.114594v0q7.721039,1.932362,12.203186,7.348824t4.482102,12.911676v0q0,11.477048-8.309922,18.035358t-23.490295,6.558312v0Zm.458038-39.876879h-20.938415v30.683531h20.74208q8.768021,0,13.839005-4.069666t5.071045-11.213543v0q0-15.400322-18.713715-15.400322v0Zm-20.938415-36.129269v27.111588h18.975433q8.244553,0,13.184662-3.689045t4.94017-10.013142v0q0-7.026748-4.580246-10.218093t-13.937179-3.191308v0h-18.58284Z" transform="translate(35.9603 234.419)" stroke-width="5.18519"/></g></svg>
